<svg width="600" height="600" xmlns="http://www.w3.org/2000/svg" preserveAspectRatio="xMidYMid meet" version="1.0">
    <g>
        <path fill="#FFB852"
              d="m214.91427,21.64638l0,21.34643l-42.54286,0l-42.54286,0l0,21.34643l0,21.34643l-21.27143,0l-21.27143,0l0,21.34643l0,21.34643l-21.27143,0l-21.27143,0l0,64.03929l0,64.03929l-21.27143,0l-21.27143,0l0,170.77144l0,170.77144l21.27143,0l21.27143,0l0,-21.34643l0,-21.34643l21.27143,0l21.27143,0l0,-21.34643l0,-21.34643l21.27143,0l21.27143,0l0,21.34643l0,21.34643l21.27143,0l21.27143,0l0,21.34643l0,21.34643l42.54286,0l42.54286,0l0,-42.69286l0,-42.69286l42.54286,0l42.54286,0l0,42.69286l0,42.69286l42.54286,0l42.54286,0l0,-21.34643l0,-21.34643l21.27143,0l21.27143,0l0,-21.34643l0,-21.34643l21.27143,0l21.27143,0l0,21.34643l0,21.34643l21.27143,0l21.27143,0l0,21.34643l0,21.34643l21.27143,0l21.27143,0l0,-192.11787l0,-192.11787l-21.27143,0l-21.27143,0l0,-42.69286l0,-42.69286l-21.27143,0l-21.27143,0l0,-21.34643l0,-21.34643l-21.27143,0l-21.27143,0l0,-21.34643l0,-21.34643l-42.54286,0l-42.54286,0l0,-21.34643l0,-21.34643l-85.08572,0l-85.08572,0l0,21.34643zm85.08572,170.77144l0,21.34643l21.27143,0l21.27143,0l0,21.34643l0,21.34643l-42.54286,0l-42.54286,0l0,42.69286l0,42.69286l21.27143,0l21.27143,0l0,21.34643l0,21.34643l-42.54286,0l-42.54286,0l0,-21.34643l0,-21.34643l-21.27143,0l-21.27143,0l0,-64.03929l0,-64.03929l21.27143,0l21.27143,0l0,-21.34643l0,-21.34643l42.54286,0l42.54286,0l0,21.34643zm212.71429,0l0,21.34643l21.27143,0l21.27143,0l0,21.34643l0,21.34643l-42.54286,0l-42.54286,0l0,42.69286l0,42.69286l21.27143,0l21.27143,0l0,21.34643l0,21.34643l-42.54286,0l-42.54286,0l0,-21.34643l0,-21.34643l-21.27143,0l-21.27143,0l0,-64.03929l0,-64.03929l21.27143,0l21.27143,0l0,-21.34643l0,-21.34643l42.54286,0l42.54286,0l0,21.34643z"/>
        <path fill="#000000"
              d="m257.38607,256.07231l85.28326,0l0,86.34718l-85.28326,0l0,-86.34718z"/>
        <path fill="#000000"
              d="m469.89234,256.07231l85.61112,0l0,86.34718l-85.61112,0l0,-86.34718z"/>
        <g>
            <path d="m171.88955,213.38481l85.80937,0l0,129.22171l-85.80937,0l0,-129.22171z" fill="#ffffff"/>
            <path d="m214.55801,170.68419l86.06541,0l0,85.54531l-86.06541,0l0,-85.54531z" fill="#ffffff"/>
            <path d="m213.83595,342.24483l86.66662,0l0,42.42104l-86.66662,0l0,-42.42104z" fill="#ffffff"/>
            <path d="m300.03231,213.33467l42.85938,0l0,42.80591l-42.85938,0l0,-42.80591z" fill="#ffffff"/>
        </g>
        <g>
            <path d="m384.20387,213.38481l85.80937,0l0,129.2217l-85.80937,0l0,-129.2217z" fill="#ffffff"/>
            <path d="m426.87233,170.68419l86.06541,0l0,85.54531l-86.06541,0l0,-85.54531z" fill="#ffffff"/>
            <path d="m426.15027,342.24483l86.66662,0l0,42.42104l-86.66662,0l0,-42.42104z" fill="#ffffff"/>
            <path d="m512.34663,213.33467l42.85938,0l0,42.80591l-42.85938,0l0,-42.80591z" fill="#ffffff"/>
        </g>
    </g>

</svg>
